solid OpenSCAD_Model
  facet normal -1 0 0
    outer loop
      vertex -29.5 40 0
      vertex -29.5 40.1468 4
      vertex -29.5 40.1468 0
    endloop
  endfacet
  facet normal -1 -0 0
    outer loop
      vertex -29.5 40.1468 4
      vertex -29.5 40 0
      vertex -29.5 40 4
    endloop
  endfacet
  facet normal -0.951057 -0.309017 0
    outer loop
      vertex -31.9271 41.2366 0
      vertex -32.5 43 4
      vertex -32.5 43 0
    endloop
  endfacet
  facet normal -0.951057 -0.309017 0
    outer loop
      vertex -32.5 43 4
      vertex -31.9271 41.2366 0
      vertex -31.9271 41.2366 4
    endloop
  endfacet
  facet normal -0.587786 -0.809016 0
    outer loop
      vertex -31.9271 41.2366 0
      vertex -30.4271 40.1468 4
      vertex -31.9271 41.2366 4
    endloop
  endfacet
  facet normal -0.587786 -0.809016 -0
    outer loop
      vertex -30.4271 40.1468 4
      vertex -31.9271 41.2366 0
      vertex -30.4271 40.1468 0
    endloop
  endfacet
  facet normal -0 0 -1
    outer loop
      vertex 24.8532 2.07295 0
      vertex 23.7634 0.572948 0
      vertex 24.8532 3 0
    endloop
  endfacet
  facet normal 0 0 -1
    outer loop
      vertex 16.5 8 0
      vertex 25 3 0
      vertex 24.8532 3 0
    endloop
  endfacet
  facet normal 0 0 -1
    outer loop
      vertex 56.2634 40.5729 0
      vertex 57.3532 43 0
      vertex 57.3532 42.0729 0
    endloop
  endfacet
  facet normal 0 0 -1
    outer loop
      vertex 57.3532 43 0
      vertex 56.2634 40.5729 0
      vertex 54.5 40 0
    endloop
  endfacet
  facet normal -0 0 -1
    outer loop
      vertex 57.3532 43 0
      vertex 54.5 40 0
      vertex 54.5 69.8532 0
    endloop
  endfacet
  facet normal 0 0 -1
    outer loop
      vertex 57.3532 43 0
      vertex 54.5 69.8532 0
      vertex 56.9271 68.7634 0
    endloop
  endfacet
  facet normal 0 0 -1
    outer loop
      vertex 56.9271 68.7634 0
      vertex 54.5 69.8532 0
      vertex 55.4271 69.8532 0
    endloop
  endfacet
  facet normal 0 0 -1
    outer loop
      vertex 25 40 0
      vertex 54.5 69.8532 0
      vertex 54.5 40 0
    endloop
  endfacet
  facet normal 0 0 -1
    outer loop
      vertex 17.5 70 0
      vertex 54.5 69.8532 0
      vertex 25 40 0
    endloop
  endfacet
  facet normal 0 0 -1
    outer loop
      vertex 22 1.83697e-16 0
      vertex 24.8532 3 0
      vertex 23.7634 0.572948 0
    endloop
  endfacet
  facet normal -0 0 -1
    outer loop
      vertex 24.8532 3 0
      vertex 22 1.83697e-16 0
      vertex 16.0418 6.14111 0
    endloop
  endfacet
  facet normal 0 0 -1
    outer loop
      vertex 54.5 69.8532 0
      vertex 17.5 70 0
      vertex 54.5 70 0
    endloop
  endfacet
  facet normal 0 0 -1
    outer loop
      vertex 25 3 0
      vertex 16.5 28 0
      vertex 25 40 0
    endloop
  endfacet
  facet normal 0 0 -1
    outer loop
      vertex 57.3532 43 0
      vertex 57.5 67 0
      vertex 57.5 43 0
    endloop
  endfacet
  facet normal -0 0 -1
    outer loop
      vertex 57.5 67 0
      vertex 57.3532 43 0
      vertex 56.9271 68.7634 0
    endloop
  endfacet
  facet normal 0 0 -1
    outer loop
      vertex -29.5 40.1468 0
      vertex -32.5 43 0
      vertex -32.3532 67 0
    endloop
  endfacet
  facet normal -0 0 -1
    outer loop
      vertex -32.3532 67 0
      vertex -32.5 43 0
      vertex -32.5 67 0
    endloop
  endfacet
  facet normal 0 0 -1
    outer loop
      vertex 8.61623 28 0
      vertex 8.5 28 0
      vertex 8.61623 28.9573 0
    endloop
  endfacet
  facet normal 0 0 0
    outer loop
      vertex 14.7723 4.70806 0
      vertex 22 1.83697e-16 0
      vertex 22 0 0
    endloop
  endfacet
  facet normal 0 0 -1
    outer loop
      vertex 25 3 0
      vertex 16.5 8 0
      vertex 16.5 28 0
    endloop
  endfacet
  facet normal 0 0 -1
    outer loop
      vertex 24.8532 3 0
      vertex 16.0418 6.14111 0
      vertex 16.5 8 0
    endloop
  endfacet
  facet normal 0 0 -1
    outer loop
      vertex 22 1.83697e-16 0
      vertex 14.7723 4.70806 0
      vertex 16.0418 6.14111 0
    endloop
  endfacet
  facet normal 0 0 -1
    outer loop
      vertex 22 0 0
      vertex 12.9821 4.02916 0
      vertex 14.7723 4.70806 0
    endloop
  endfacet
  facet normal 0 0 -1
    outer loop
      vertex 3 0 0
      vertex 12.9821 4.02916 0
      vertex 22 0 0
    endloop
  endfacet
  facet normal 0 0 -1
    outer loop
      vertex 8.61623 7.04274 0
      vertex 8.5 8 0
      vertex 8.61623 8 0
    endloop
  endfacet
  facet normal 0 0 -1
    outer loop
      vertex 0 3 0
      vertex 8.5 28 0
      vertex 8.5 8 0
    endloop
  endfacet
  facet normal -0 0 -1
    outer loop
      vertex 12.9821 4.02916 0
      vertex 3 0 0
      vertex 11.0816 4.25993 0
    endloop
  endfacet
  facet normal 0 0 -1
    outer loop
      vertex 3 0.14683 0
      vertex 11.0816 4.25993 0
      vertex 3 0 0
    endloop
  endfacet
  facet normal -0 0 -1
    outer loop
      vertex 11.0816 4.25993 0
      vertex 3 0.14683 0
      vertex 9.50596 5.34751 0
    endloop
  endfacet
  facet normal -0 0 -1
    outer loop
      vertex 9.50596 5.34751 0
      vertex 3 0.14683 0
      vertex 8.61623 7.04274 0
    endloop
  endfacet
  facet normal 0 0 -1
    outer loop
      vertex 0 3 0
      vertex 8.61623 7.04274 0
      vertex 3 0.14683 0
    endloop
  endfacet
  facet normal -0 0 -1
    outer loop
      vertex 8.61623 7.04274 0
      vertex 0 3 0
      vertex 8.5 8 0
    endloop
  endfacet
  facet normal 0 0 -1
    outer loop
      vertex 0.572948 1.23664 0
      vertex 3 0.14683 0
      vertex 2.07295 0.14683 0
    endloop
  endfacet
  facet normal 0 0 -1
    outer loop
      vertex 3 0.14683 0
      vertex 0.572948 1.23664 0
      vertex 0 3 0
    endloop
  endfacet
  facet normal -0 0 -1
    outer loop
      vertex 8.5 28 0
      vertex 0 3 0
      vertex 0 40 0
    endloop
  endfacet
  facet normal 0 0 -1
    outer loop
      vertex 8.5 28 0
      vertex 0 40 0
      vertex 7.5 70 0
    endloop
  endfacet
  facet normal 0 0 -1
    outer loop
      vertex -29.5 40.1468 0
      vertex 0 40 0
      vertex -29.5 40 0
    endloop
  endfacet
  facet normal 0 0 -1
    outer loop
      vertex -29.5 70 0
      vertex 0 40 0
      vertex -29.5 40.1468 0
    endloop
  endfacet
  facet normal 0 0 -1
    outer loop
      vertex 0 40 0
      vertex -29.5 70 0
      vertex 7.5 70 0
    endloop
  endfacet
  facet normal 0 0 -1
    outer loop
      vertex -31.9271 41.2366 0
      vertex -29.5 40.1468 0
      vertex -30.4271 40.1468 0
    endloop
  endfacet
  facet normal 0 0 -1
    outer loop
      vertex -29.5 40.1468 0
      vertex -32.3532 67 0
      vertex -29.5 70 0
    endloop
  endfacet
  facet normal 0 0 -1
    outer loop
      vertex -32.5 43 0
      vertex -29.5 40.1468 0
      vertex -31.9271 41.2366 0
    endloop
  endfacet
  facet normal 0 0 -1
    outer loop
      vertex -29.5 70 0
      vertex -32.3532 67 0
      vertex -31.2634 69.427 0
    endloop
  endfacet
  facet normal 0 0 -1
    outer loop
      vertex -31.2634 69.427 0
      vertex -32.3532 67 0
      vertex -32.3532 67.927 0
    endloop
  endfacet
  facet normal 0 0 -1
    outer loop
      vertex 16.0418 29.8589 0
      vertex 25 40 0
      vertex 16.5 28 0
    endloop
  endfacet
  facet normal 0 0 -1
    outer loop
      vertex 14.7723 31.2919 0
      vertex 25 40 0
      vertex 16.0418 29.8589 0
    endloop
  endfacet
  facet normal 0 0 -1
    outer loop
      vertex 12.9821 31.9708 0
      vertex 25 40 0
      vertex 14.7723 31.2919 0
    endloop
  endfacet
  facet normal 0 0 -1
    outer loop
      vertex 11.0816 31.7401 0
      vertex 25 40 0
      vertex 12.9821 31.9708 0
    endloop
  endfacet
  facet normal -0 0 -1
    outer loop
      vertex 25 40 0
      vertex 11.0816 31.7401 0
      vertex 7.5 70 0
    endloop
  endfacet
  facet normal 0 0 -1
    outer loop
      vertex 7.5 70 0
      vertex 11.0816 31.7401 0
      vertex 9.50596 30.6525 0
    endloop
  endfacet
  facet normal 0 0 -1
    outer loop
      vertex 7.5 70 0
      vertex 9.50596 30.6525 0
      vertex 8.61623 28.9573 0
    endloop
  endfacet
  facet normal 0 0 -1
    outer loop
      vertex 25 40 0
      vertex 7.5 70 0
      vertex 17.5 70 0
    endloop
  endfacet
  facet normal 0 0 -1
    outer loop
      vertex 7.5 70 0
      vertex 8.61623 28.9573 0
      vertex 8.5 28 0
    endloop
  endfacet
  facet normal 0 -1 0
    outer loop
      vertex -30.4271 40.1468 0
      vertex -29.5 40.1468 4
      vertex -30.4271 40.1468 4
    endloop
  endfacet
  facet normal 0 -1 -0
    outer loop
      vertex -29.5 40.1468 4
      vertex -30.4271 40.1468 0
      vertex -29.5 40.1468 0
    endloop
  endfacet
  facet normal -0 0 1
    outer loop
      vertex -32.3532 67 4
      vertex -29.5 40.1468 4
      vertex -29.5 70 4
    endloop
  endfacet
  facet normal 0 0 1
    outer loop
      vertex -32.3532 67 4
      vertex -29.5 70 4
      vertex -31.2634 69.427 4
    endloop
  endfacet
  facet normal 0 0 1
    outer loop
      vertex -29.5 40.1468 4
      vertex -32.3532 67 4
      vertex -32.5 43 4
    endloop
  endfacet
  facet normal 0 0 1
    outer loop
      vertex -32.3532 67 4
      vertex -31.2634 69.427 4
      vertex -32.3532 67.927 4
    endloop
  endfacet
  facet normal -0 -0 1
    outer loop
      vertex -31.9271 41.2366 4
      vertex -29.5 40.1468 4
      vertex -32.5 43 4
    endloop
  endfacet
  facet normal 0 0 1
    outer loop
      vertex -32.5 43 4
      vertex -32.3532 67 4
      vertex -32.5 67 4
    endloop
  endfacet
  facet normal 0 0 1
    outer loop
      vertex -29.5 40.1468 4
      vertex -31.9271 41.2366 4
      vertex -30.4271 40.1468 4
    endloop
  endfacet
  facet normal -0 0 1
    outer loop
      vertex -29.5 70 4
      vertex 7.5 68.3431 4
      vertex 7.5 70 4
    endloop
  endfacet
  facet normal 0 0 1
    outer loop
      vertex 7.5 68.3431 4
      vertex 0 40 4
      vertex 3 0.14683 4
    endloop
  endfacet
  facet normal -0 0 1
    outer loop
      vertex 0 3 4
      vertex 3 0.14683 4
      vertex 0 40 4
    endloop
  endfacet
  facet normal -0 -0 1
    outer loop
      vertex 0.572948 1.23664 4
      vertex 3 0.14683 4
      vertex 0 3 4
    endloop
  endfacet
  facet normal 0 0 1
    outer loop
      vertex 7.5 68.3431 4
      vertex -29.5 70 4
      vertex 0 40 4
    endloop
  endfacet
  facet normal -0 0 1
    outer loop
      vertex -29.5 40.1468 4
      vertex 0 40 4
      vertex -29.5 70 4
    endloop
  endfacet
  facet normal 0 0 1
    outer loop
      vertex 0 40 4
      vertex -29.5 40.1468 4
      vertex -29.5 40 4
    endloop
  endfacet
  facet normal 0 0 1
    outer loop
      vertex 3 0.14683 4
      vertex 0.572948 1.23664 4
      vertex 2.07295 0.14683 4
    endloop
  endfacet
  facet normal 0 0 1
    outer loop
      vertex 8.61623 8 4
      vertex 8.5 8 4
      vertex 8.61623 7.04274 4
    endloop
  endfacet
  facet normal 0 0 1
    outer loop
      vertex 25 40 4
      vertex 16.0418 29.8589 4
      vertex 16.5 28 4
    endloop
  endfacet
  facet normal 0 0 1
    outer loop
      vertex 25 40 4
      vertex 14.7723 31.2919 4
      vertex 16.0418 29.8589 4
    endloop
  endfacet
  facet normal 0 0 1
    outer loop
      vertex 25 40 4
      vertex 12.9821 31.9708 4
      vertex 14.7723 31.2919 4
    endloop
  endfacet
  facet normal 0 -0 1
    outer loop
      vertex 11.0816 31.7401 4
      vertex 25 40 4
      vertex 7.5 68.3431 4
    endloop
  endfacet
  facet normal 0 0 1
    outer loop
      vertex 25 40 4
      vertex 11.0816 31.7401 4
      vertex 12.9821 31.9708 4
    endloop
  endfacet
  facet normal 0 0 1
    outer loop
      vertex 11.0816 31.7401 4
      vertex 7.5 68.3431 4
      vertex 9.50596 30.6525 4
    endloop
  endfacet
  facet normal 0 0 1
    outer loop
      vertex 8.61623 28.9573 4
      vertex 8.5 28 4
      vertex 8.61623 28 4
    endloop
  endfacet
  facet normal 0 0 1
    outer loop
      vertex 3 0.14683 4
      vertex 8.5 28 4
      vertex 7.5 68.3431 4
    endloop
  endfacet
  facet normal 0 0 1
    outer loop
      vertex 8.61623 28.9573 4
      vertex 7.5 68.3431 4
      vertex 8.5 28 4
    endloop
  endfacet
  facet normal 0 0 1
    outer loop
      vertex 9.50596 30.6525 4
      vertex 7.5 68.3431 4
      vertex 8.61623 28.9573 4
    endloop
  endfacet
  facet normal -0 0 1
    outer loop
      vertex 17.5 70 4
      vertex 54.5 69.8532 4
      vertex 54.5 70 4
    endloop
  endfacet
  facet normal 0 0 1
    outer loop
      vertex 54.5 69.8532 4
      vertex 25 40 4
      vertex 54.5 40 4
    endloop
  endfacet
  facet normal -0 0 1
    outer loop
      vertex 16.5 28 4
      vertex 25 3 4
      vertex 25 40 4
    endloop
  endfacet
  facet normal 0 0 1
    outer loop
      vertex 24.8532 3 4
      vertex 23.7634 0.572948 4
      vertex 24.8532 2.07295 4
    endloop
  endfacet
  facet normal -0 0 1
    outer loop
      vertex 16.5 8 4
      vertex 25 3 4
      vertex 16.5 28 4
    endloop
  endfacet
  facet normal 0 0 1
    outer loop
      vertex 25 3 4
      vertex 16.5 8 4
      vertex 24.8532 3 4
    endloop
  endfacet
  facet normal 0 0 1
    outer loop
      vertex 54.5 69.8532 4
      vertex 17.5 70 4
      vertex 17.5 68.3431 4
    endloop
  endfacet
  facet normal 0 0 1
    outer loop
      vertex 54.5 69.8532 4
      vertex 17.5 68.3431 4
      vertex 25 40 4
    endloop
  endfacet
  facet normal -0 0 1
    outer loop
      vertex 7.5 68.3431 4
      vertex 25 40 4
      vertex 17.5 68.3431 4
    endloop
  endfacet
  facet normal -0 0 1
    outer loop
      vertex 16.0418 6.14111 4
      vertex 24.8532 3 4
      vertex 16.5 8 4
    endloop
  endfacet
  facet normal 0 -0 1
    outer loop
      vertex 22 1.83697e-16 4
      vertex 24.8532 3 4
      vertex 16.0418 6.14111 4
    endloop
  endfacet
  facet normal 0 0 1
    outer loop
      vertex 24.8532 3 4
      vertex 22 1.83697e-16 4
      vertex 23.7634 0.572948 4
    endloop
  endfacet
  facet normal -0 0 1
    outer loop
      vertex 14.7723 4.70806 4
      vertex 22 1.83697e-16 4
      vertex 16.0418 6.14111 4
    endloop
  endfacet
  facet normal 0 0 1
    outer loop
      vertex 22 1.83697e-16 4
      vertex 14.7723 4.70806 4
      vertex 22 0 4
    endloop
  endfacet
  facet normal -0 0 1
    outer loop
      vertex 12.9821 4.02916 4
      vertex 22 0 4
      vertex 14.7723 4.70806 4
    endloop
  endfacet
  facet normal 0 0 1
    outer loop
      vertex 3 0 4
      vertex 12.9821 4.02916 4
      vertex 11.0816 4.25993 4
    endloop
  endfacet
  facet normal 0 0 1
    outer loop
      vertex 8.5 28 4
      vertex 3 0.14683 4
      vertex 8.5 8 4
    endloop
  endfacet
  facet normal 0 0 1
    outer loop
      vertex 3 0.14683 4
      vertex 8.61623 7.04274 4
      vertex 8.5 8 4
    endloop
  endfacet
  facet normal 0 0 1
    outer loop
      vertex 3 0.14683 4
      vertex 9.50596 5.34751 4
      vertex 8.61623 7.04274 4
    endloop
  endfacet
  facet normal 0 0 1
    outer loop
      vertex 3 0.14683 4
      vertex 11.0816 4.25993 4
      vertex 9.50596 5.34751 4
    endloop
  endfacet
  facet normal 0 0 1
    outer loop
      vertex 3 0 4
      vertex 11.0816 4.25993 4
      vertex 3 0.14683 4
    endloop
  endfacet
  facet normal 0 0 1
    outer loop
      vertex 12.9821 4.02916 4
      vertex 3 0 4
      vertex 22 0 4
    endloop
  endfacet
  facet normal 0 0 1
    outer loop
      vertex 57.5 67 4
      vertex 57.3532 43 4
      vertex 57.5 43 4
    endloop
  endfacet
  facet normal 0 0 1
    outer loop
      vertex 54.5 69.8532 4
      vertex 57.5 67 4
      vertex 56.9271 68.7634 4
    endloop
  endfacet
  facet normal 0 0 1
    outer loop
      vertex 57.5 67 4
      vertex 54.5 69.8532 4
      vertex 57.3532 43 4
    endloop
  endfacet
  facet normal 0 0 1
    outer loop
      vertex 54.5 40 4
      vertex 57.3532 43 4
      vertex 54.5 69.8532 4
    endloop
  endfacet
  facet normal -0 0 1
    outer loop
      vertex 54.5 69.8532 4
      vertex 56.9271 68.7634 4
      vertex 55.4271 69.8532 4
    endloop
  endfacet
  facet normal 0 -0 1
    outer loop
      vertex 56.2634 40.5729 4
      vertex 57.3532 43 4
      vertex 54.5 40 4
    endloop
  endfacet
  facet normal 0 0 1
    outer loop
      vertex 57.3532 43 4
      vertex 56.2634 40.5729 4
      vertex 57.3532 42.0729 4
    endloop
  endfacet
  facet normal 0 -1 0
    outer loop
      vertex 57.3532 43 0
      vertex 57.5 43 4
      vertex 57.3532 43 4
    endloop
  endfacet
  facet normal 0 -1 -0
    outer loop
      vertex 57.5 43 4
      vertex 57.3532 43 0
      vertex 57.5 43 0
    endloop
  endfacet
  facet normal 0.309017 -0.951057 0
    outer loop
      vertex 54.5 40 0
      vertex 56.2634 40.5729 4
      vertex 54.5 40 4
    endloop
  endfacet
  facet normal 0.309017 -0.951057 0
    outer loop
      vertex 56.2634 40.5729 4
      vertex 54.5 40 0
      vertex 56.2634 40.5729 0
    endloop
  endfacet
  facet normal 0.809016 -0.587786 0
    outer loop
      vertex 56.2634 40.5729 4
      vertex 57.3532 42.0729 0
      vertex 57.3532 42.0729 4
    endloop
  endfacet
  facet normal 0.809016 -0.587786 0
    outer loop
      vertex 57.3532 42.0729 0
      vertex 56.2634 40.5729 4
      vertex 56.2634 40.5729 0
    endloop
  endfacet
  facet normal 1 -0 0
    outer loop
      vertex 57.3532 42.0729 4
      vertex 57.3532 43 0
      vertex 57.3532 43 4
    endloop
  endfacet
  facet normal 1 0 0
    outer loop
      vertex 57.3532 43 0
      vertex 57.3532 42.0729 4
      vertex 57.3532 42.0729 0
    endloop
  endfacet
  facet normal 1 -0 0
    outer loop
      vertex 54.5 69.8532 4
      vertex 54.5 70 0
      vertex 54.5 70 4
    endloop
  endfacet
  facet normal 1 0 0
    outer loop
      vertex 54.5 70 0
      vertex 54.5 69.8532 4
      vertex 54.5 69.8532 0
    endloop
  endfacet
  facet normal 0.951057 0.309016 0
    outer loop
      vertex 57.5 67 4
      vertex 56.9271 68.7634 0
      vertex 56.9271 68.7634 4
    endloop
  endfacet
  facet normal 0.951057 0.309016 0
    outer loop
      vertex 56.9271 68.7634 0
      vertex 57.5 67 4
      vertex 57.5 67 0
    endloop
  endfacet
  facet normal 0.587785 0.809017 -0
    outer loop
      vertex 56.9271 68.7634 0
      vertex 55.4271 69.8532 4
      vertex 56.9271 68.7634 4
    endloop
  endfacet
  facet normal 0.587785 0.809017 0
    outer loop
      vertex 55.4271 69.8532 4
      vertex 56.9271 68.7634 0
      vertex 55.4271 69.8532 0
    endloop
  endfacet
  facet normal 0 1 -0
    outer loop
      vertex 55.4271 69.8532 0
      vertex 54.5 69.8532 4
      vertex 55.4271 69.8532 4
    endloop
  endfacet
  facet normal 0 1 0
    outer loop
      vertex 54.5 69.8532 4
      vertex 55.4271 69.8532 0
      vertex 54.5 69.8532 0
    endloop
  endfacet
  facet normal 0 1 -0
    outer loop
      vertex -32.3532 67 0
      vertex -32.5 67 4
      vertex -32.3532 67 4
    endloop
  endfacet
  facet normal 0 1 0
    outer loop
      vertex -32.5 67 4
      vertex -32.3532 67 0
      vertex -32.5 67 0
    endloop
  endfacet
  facet normal -0.309019 0.951056 0
    outer loop
      vertex -29.5 70 0
      vertex -31.2634 69.427 4
      vertex -29.5 70 4
    endloop
  endfacet
  facet normal -0.309019 0.951056 0
    outer loop
      vertex -31.2634 69.427 4
      vertex -29.5 70 0
      vertex -31.2634 69.427 0
    endloop
  endfacet
  facet normal -0.809016 0.587786 0
    outer loop
      vertex -32.3532 67.927 0
      vertex -31.2634 69.427 4
      vertex -31.2634 69.427 0
    endloop
  endfacet
  facet normal -0.809016 0.587786 0
    outer loop
      vertex -31.2634 69.427 4
      vertex -32.3532 67.927 0
      vertex -32.3532 67.927 4
    endloop
  endfacet
  facet normal -1 0 0
    outer loop
      vertex -32.3532 67 0
      vertex -32.3532 67.927 4
      vertex -32.3532 67.927 0
    endloop
  endfacet
  facet normal -1 -0 0
    outer loop
      vertex -32.3532 67.927 4
      vertex -32.3532 67 0
      vertex -32.3532 67 4
    endloop
  endfacet
  facet normal -1 0 0
    outer loop
      vertex -32.5 43 0
      vertex -32.5 67 4
      vertex -32.5 67 0
    endloop
  endfacet
  facet normal -1 -0 0
    outer loop
      vertex -32.5 67 4
      vertex -32.5 43 0
      vertex -32.5 43 4
    endloop
  endfacet
  facet normal 1 -0 0
    outer loop
      vertex 57.5 43 4
      vertex 57.5 67 0
      vertex 57.5 67 4
    endloop
  endfacet
  facet normal 1 0 0
    outer loop
      vertex 57.5 67 0
      vertex 57.5 43 4
      vertex 57.5 43 0
    endloop
  endfacet
  facet normal 0 1 -0
    outer loop
      vertex 54.5 70 0
      vertex 17.5 70 4
      vertex 54.5 70 4
    endloop
  endfacet
  facet normal 0 1 0
    outer loop
      vertex 17.5 70 4
      vertex 54.5 70 0
      vertex 17.5 70 0
    endloop
  endfacet
  facet normal 0 1 -0
    outer loop
      vertex 7.5 70 0
      vertex -29.5 70 4
      vertex 7.5 70 4
    endloop
  endfacet
  facet normal 0 1 0
    outer loop
      vertex -29.5 70 4
      vertex 7.5 70 0
      vertex -29.5 70 0
    endloop
  endfacet
  facet normal 0 -1 0
    outer loop
      vertex -29.5 40 0
      vertex 0 40 4
      vertex -29.5 40 4
    endloop
  endfacet
  facet normal 0 -1 -0
    outer loop
      vertex 0 40 4
      vertex -29.5 40 0
      vertex 0 40 0
    endloop
  endfacet
  facet normal 0 -1 0
    outer loop
      vertex 25 40 0
      vertex 54.5 40 4
      vertex 25 40 4
    endloop
  endfacet
  facet normal 0 -1 -0
    outer loop
      vertex 54.5 40 4
      vertex 25 40 0
      vertex 54.5 40 0
    endloop
  endfacet
  facet normal -1 0 0
    outer loop
      vertex 3 0 0
      vertex 3 0.14683 4
      vertex 3 0.14683 0
    endloop
  endfacet
  facet normal -1 -0 0
    outer loop
      vertex 3 0.14683 4
      vertex 3 0 0
      vertex 3 0 4
    endloop
  endfacet
  facet normal -0.951057 -0.309017 0
    outer loop
      vertex 0.572948 1.23664 0
      vertex 0 3 4
      vertex 0 3 0
    endloop
  endfacet
  facet normal -0.951057 -0.309017 0
    outer loop
      vertex 0 3 4
      vertex 0.572948 1.23664 0
      vertex 0.572948 1.23664 4
    endloop
  endfacet
  facet normal -0.587785 -0.809017 0
    outer loop
      vertex 0.572948 1.23664 0
      vertex 2.07295 0.14683 4
      vertex 0.572948 1.23664 4
    endloop
  endfacet
  facet normal -0.587785 -0.809017 -0
    outer loop
      vertex 2.07295 0.14683 4
      vertex 0.572948 1.23664 0
      vertex 2.07295 0.14683 0
    endloop
  endfacet
  facet normal 0 -1 0
    outer loop
      vertex 2.07295 0.14683 0
      vertex 3 0.14683 4
      vertex 2.07295 0.14683 4
    endloop
  endfacet
  facet normal 0 -1 -0
    outer loop
      vertex 3 0.14683 4
      vertex 2.07295 0.14683 0
      vertex 3 0.14683 0
    endloop
  endfacet
  facet normal 0 -1 0
    outer loop
      vertex 24.8532 3 0
      vertex 25 3 4
      vertex 24.8532 3 4
    endloop
  endfacet
  facet normal 0 -1 -0
    outer loop
      vertex 25 3 4
      vertex 24.8532 3 0
      vertex 25 3 0
    endloop
  endfacet
  facet normal 1 -0 0
    outer loop
      vertex 22 0 4
      vertex 22 1.83697e-16 0
      vertex 22 1.83697e-16 4
    endloop
  endfacet
  facet normal 1 0 0
    outer loop
      vertex 22 1.83697e-16 0
      vertex 22 0 4
      vertex 22 0 0
    endloop
  endfacet
  facet normal 0.309017 -0.951057 0
    outer loop
      vertex 22 1.83697e-16 0
      vertex 23.7634 0.572948 4
      vertex 22 1.83697e-16 4
    endloop
  endfacet
  facet normal 0.309017 -0.951057 0
    outer loop
      vertex 23.7634 0.572948 4
      vertex 22 1.83697e-16 0
      vertex 23.7634 0.572948 0
    endloop
  endfacet
  facet normal 0.809017 -0.587786 0
    outer loop
      vertex 23.7634 0.572948 4
      vertex 24.8532 2.07295 0
      vertex 24.8532 2.07295 4
    endloop
  endfacet
  facet normal 0.809017 -0.587786 0
    outer loop
      vertex 24.8532 2.07295 0
      vertex 23.7634 0.572948 4
      vertex 23.7634 0.572948 0
    endloop
  endfacet
  facet normal 1 -0 0
    outer loop
      vertex 24.8532 2.07295 4
      vertex 24.8532 3 0
      vertex 24.8532 3 4
    endloop
  endfacet
  facet normal 1 0 0
    outer loop
      vertex 24.8532 3 0
      vertex 24.8532 2.07295 4
      vertex 24.8532 2.07295 0
    endloop
  endfacet
  facet normal -1 0 0
    outer loop
      vertex 0 3 0
      vertex 0 40 4
      vertex 0 40 0
    endloop
  endfacet
  facet normal -1 -0 0
    outer loop
      vertex 0 40 4
      vertex 0 3 0
      vertex 0 3 4
    endloop
  endfacet
  facet normal 1 -0 0
    outer loop
      vertex 25 3 4
      vertex 25 40 0
      vertex 25 40 4
    endloop
  endfacet
  facet normal 1 0 0
    outer loop
      vertex 25 40 0
      vertex 25 3 4
      vertex 25 3 0
    endloop
  endfacet
  facet normal 0 -1 0
    outer loop
      vertex 3 0 0
      vertex 22 0 4
      vertex 3 0 4
    endloop
  endfacet
  facet normal 0 -1 -0
    outer loop
      vertex 22 0 4
      vertex 3 0 0
      vertex 22 0 0
    endloop
  endfacet
  facet normal 1 -0 0
    outer loop
      vertex 8.5 8 4
      vertex 8.5 28 0
      vertex 8.5 28 4
    endloop
  endfacet
  facet normal 1 0 0
    outer loop
      vertex 8.5 28 0
      vertex 8.5 8 4
      vertex 8.5 8 0
    endloop
  endfacet
  facet normal -1 0 0
    outer loop
      vertex 16.5 8 0
      vertex 16.5 28 4
      vertex 16.5 28 0
    endloop
  endfacet
  facet normal -1 -0 0
    outer loop
      vertex 16.5 28 4
      vertex 16.5 8 0
      vertex 16.5 8 4
    endloop
  endfacet
  facet normal 0 -1 0
    outer loop
      vertex 8.5 28 0
      vertex 8.61623 28 4
      vertex 8.5 28 4
    endloop
  endfacet
  facet normal 0 -1 -0
    outer loop
      vertex 8.61623 28 4
      vertex 8.5 28 0
      vertex 8.61623 28 0
    endloop
  endfacet
  facet normal 0 1 -0
    outer loop
      vertex 8.61623 8 0
      vertex 8.5 8 4
      vertex 8.61623 8 4
    endloop
  endfacet
  facet normal 0 1 0
    outer loop
      vertex 8.5 8 4
      vertex 8.61623 8 0
      vertex 8.5 8 0
    endloop
  endfacet
  facet normal -0.970942 -0.239316 0
    outer loop
      vertex 16.5 28 0
      vertex 16.0418 29.8589 4
      vertex 16.0418 29.8589 0
    endloop
  endfacet
  facet normal -0.970942 -0.239316 0
    outer loop
      vertex 16.0418 29.8589 4
      vertex 16.5 28 0
      vertex 16.5 28 4
    endloop
  endfacet
  facet normal 1 -0 0
    outer loop
      vertex 8.61623 28 4
      vertex 8.61623 28.9573 0
      vertex 8.61623 28.9573 4
    endloop
  endfacet
  facet normal 1 0 0
    outer loop
      vertex 8.61623 28.9573 0
      vertex 8.61623 28 4
      vertex 8.61623 28 0
    endloop
  endfacet
  facet normal 0.120536 -0.992709 0
    outer loop
      vertex 11.0816 31.7401 0
      vertex 12.9821 31.9708 4
      vertex 11.0816 31.7401 4
    endloop
  endfacet
  facet normal 0.120536 -0.992709 0
    outer loop
      vertex 12.9821 31.9708 4
      vertex 11.0816 31.7401 0
      vertex 12.9821 31.9708 0
    endloop
  endfacet
  facet normal -0.748511 -0.663123 0
    outer loop
      vertex 16.0418 29.8589 0
      vertex 14.7723 31.2919 4
      vertex 14.7723 31.2919 0
    endloop
  endfacet
  facet normal -0.748511 -0.663123 0
    outer loop
      vertex 14.7723 31.2919 4
      vertex 16.0418 29.8589 0
      vertex 16.0418 29.8589 4
    endloop
  endfacet
  facet normal 0.568065 -0.822984 0
    outer loop
      vertex 9.50596 30.6525 0
      vertex 11.0816 31.7401 4
      vertex 9.50596 30.6525 4
    endloop
  endfacet
  facet normal 0.568065 -0.822984 0
    outer loop
      vertex 11.0816 31.7401 4
      vertex 9.50596 30.6525 0
      vertex 11.0816 31.7401 0
    endloop
  endfacet
  facet normal -0.354605 -0.935016 0
    outer loop
      vertex 12.9821 31.9708 0
      vertex 14.7723 31.2919 4
      vertex 12.9821 31.9708 4
    endloop
  endfacet
  facet normal -0.354605 -0.935016 -0
    outer loop
      vertex 14.7723 31.2919 4
      vertex 12.9821 31.9708 0
      vertex 14.7723 31.2919 0
    endloop
  endfacet
  facet normal 0.885456 -0.464723 0
    outer loop
      vertex 8.61623 28.9573 4
      vertex 9.50596 30.6525 0
      vertex 9.50596 30.6525 4
    endloop
  endfacet
  facet normal 0.885456 -0.464723 0
    outer loop
      vertex 9.50596 30.6525 0
      vertex 8.61623 28.9573 4
      vertex 8.61623 28.9573 0
    endloop
  endfacet
  facet normal 1 -0 0
    outer loop
      vertex 8.61623 7.04274 4
      vertex 8.61623 8 0
      vertex 8.61623 8 4
    endloop
  endfacet
  facet normal 1 0 0
    outer loop
      vertex 8.61623 8 0
      vertex 8.61623 7.04274 4
      vertex 8.61623 7.04274 0
    endloop
  endfacet
  facet normal -0.970942 0.239315 0
    outer loop
      vertex 16.0418 6.14111 0
      vertex 16.5 8 4
      vertex 16.5 8 0
    endloop
  endfacet
  facet normal -0.970942 0.239315 0
    outer loop
      vertex 16.5 8 4
      vertex 16.0418 6.14111 0
      vertex 16.0418 6.14111 4
    endloop
  endfacet
  facet normal 0.885456 0.464723 0
    outer loop
      vertex 9.50596 5.34751 4
      vertex 8.61623 7.04274 0
      vertex 8.61623 7.04274 4
    endloop
  endfacet
  facet normal 0.885456 0.464723 0
    outer loop
      vertex 8.61623 7.04274 0
      vertex 9.50596 5.34751 4
      vertex 9.50596 5.34751 0
    endloop
  endfacet
  facet normal -0.748511 0.663123 0
    outer loop
      vertex 14.7723 4.70806 0
      vertex 16.0418 6.14111 4
      vertex 16.0418 6.14111 0
    endloop
  endfacet
  facet normal -0.748511 0.663123 0
    outer loop
      vertex 16.0418 6.14111 4
      vertex 14.7723 4.70806 0
      vertex 14.7723 4.70806 4
    endloop
  endfacet
  facet normal 0.568065 0.822984 -0
    outer loop
      vertex 11.0816 4.25993 0
      vertex 9.50596 5.34751 4
      vertex 11.0816 4.25993 4
    endloop
  endfacet
  facet normal 0.568065 0.822984 0
    outer loop
      vertex 9.50596 5.34751 4
      vertex 11.0816 4.25993 0
      vertex 9.50596 5.34751 0
    endloop
  endfacet
  facet normal -0.354605 0.935016 0
    outer loop
      vertex 14.7723 4.70806 0
      vertex 12.9821 4.02916 4
      vertex 14.7723 4.70806 4
    endloop
  endfacet
  facet normal -0.354605 0.935016 0
    outer loop
      vertex 12.9821 4.02916 4
      vertex 14.7723 4.70806 0
      vertex 12.9821 4.02916 0
    endloop
  endfacet
  facet normal 0.120536 0.992709 -0
    outer loop
      vertex 12.9821 4.02916 0
      vertex 11.0816 4.25993 4
      vertex 12.9821 4.02916 4
    endloop
  endfacet
  facet normal 0.120536 0.992709 0
    outer loop
      vertex 11.0816 4.25993 4
      vertex 12.9821 4.02916 0
      vertex 11.0816 4.25993 0
    endloop
  endfacet
  facet normal 0.822984 0.533806 0.194289
    outer loop
      vertex 18.4881 92.117 21.5732
      vertex 19.5836 91.9936 17.2716
      vertex 18.4881 93.4851 17.8144
    endloop
  endfacet
  facet normal 0.822984 0.533806 0.194289
    outer loop
      vertex 19.5836 91.9936 17.2716
      vertex 18.4881 92.117 21.5732
      vertex 19.5836 90.6255 21.0303
    endloop
  endfacet
  facet normal -0.992709 0.113268 0.041226
    outer loop
      vertex 4.5 88.5 16
      vertex 4.73247 88.931 20.4136
      vertex 4.73247 90.2991 16.6548
    endloop
  endfacet
  facet normal -0.992709 0.113268 0.041226
    outer loop
      vertex 4.73247 88.931 20.4136
      vertex 4.5 88.5 16
      vertex 4.5 87.1319 19.7588
    endloop
  endfacet
  facet normal -0.992709 -0.113268 -0.041226
    outer loop
      vertex 4.73247 86.7009 15.3452
      vertex 4.5 87.1319 19.7588
      vertex 4.5 88.5 16
    endloop
  endfacet
  facet normal -0.992709 -0.113268 -0.041226
    outer loop
      vertex 4.5 87.1319 19.7588
      vertex 4.73247 86.7009 15.3452
      vertex 4.73247 85.3329 19.104
    endloop
  endfacet
  facet normal 0 0.939693 0.34202
    outer loop
      vertex 13.4643 95.9627 18.7162
      vertex 11.5357 94.5947 22.475
      vertex 13.4643 94.5947 22.475
    endloop
  endfacet
  facet normal 0 0.939693 0.34202
    outer loop
      vertex 11.5357 94.5947 22.475
      vertex 13.4643 95.9627 18.7162
      vertex 11.5357 95.9627 18.7162
    endloop
  endfacet
  facet normal 0.663121 0.703371 0.256006
    outer loop
      vertex 18.4881 92.117 21.5732
      vertex 17.0445 94.6868 18.2518
      vertex 17.0445 93.3187 22.0106
    endloop
  endfacet
  facet normal 0.663121 0.703371 0.256006
    outer loop
      vertex 17.0445 94.6868 18.2518
      vertex 18.4881 92.117 21.5732
      vertex 18.4881 93.4851 17.8144
    endloop
  endfacet
  facet normal 0.239316 0.912387 0.332082
    outer loop
      vertex 15.3368 94.1609 22.3171
      vertex 13.4643 95.9627 18.7162
      vertex 13.4643 94.5947 22.475
    endloop
  endfacet
  facet normal 0.239316 0.912387 0.332082
    outer loop
      vertex 13.4643 95.9627 18.7162
      vertex 15.3368 94.1609 22.3171
      vertex 15.3368 95.529 18.5584
    endloop
  endfacet
  facet normal -0.464723 0.832056 0.302844
    outer loop
      vertex 9.66316 95.529 18.5584
      vertex 7.95548 93.3187 22.0106
      vertex 9.66316 94.1609 22.3171
    endloop
  endfacet
  facet normal -0.464724 0.832056 0.302844
    outer loop
      vertex 7.95548 93.3187 22.0106
      vertex 9.66316 95.529 18.5584
      vertex 7.95548 94.6868 18.2518
    endloop
  endfacet
  facet normal -0.935016 0.33322 0.121282
    outer loop
      vertex 4.73247 90.2991 16.6548
      vertex 5.41635 90.6255 21.0303
      vertex 5.41635 91.9936 17.2716
    endloop
  endfacet
  facet normal -0.935016 0.333219 0.121282
    outer loop
      vertex 5.41635 90.6255 21.0303
      vertex 4.73247 90.2991 16.6548
      vertex 4.73247 88.931 20.4136
    endloop
  endfacet
  facet normal -0.663122 0.703371 0.256006
    outer loop
      vertex 7.95548 94.6868 18.2518
      vertex 6.51191 92.117 21.5732
      vertex 7.95548 93.3187 22.0106
    endloop
  endfacet
  facet normal -0.663121 0.703371 0.256006
    outer loop
      vertex 6.51191 92.117 21.5732
      vertex 7.95548 94.6868 18.2518
      vertex 6.51191 93.4851 17.8144
    endloop
  endfacet
  facet normal 0.992709 -0.113268 -0.041226
    outer loop
      vertex 20.5 87.1319 19.7588
      vertex 20.2675 86.7009 15.3452
      vertex 20.5 88.5 16
    endloop
  endfacet
  facet normal 0.992709 -0.113268 -0.041226
    outer loop
      vertex 20.2675 86.7009 15.3452
      vertex 20.5 87.1319 19.7588
      vertex 20.2675 85.3329 19.104
    endloop
  endfacet
  facet normal 0.239316 -0.912386 -0.332083
    outer loop
      vertex 13.4643 79.6692 17.0426
      vertex 15.3368 80.4873 16.1442
      vertex 15.3368 80.1029 17.2004
    endloop
  endfacet
  facet normal 0.239317 -0.912386 -0.332082
    outer loop
      vertex 15.3368 80.4873 16.1442
      vertex 13.4643 79.6692 17.0426
      vertex 13.4643 80.1272 15.7841
    endloop
  endfacet
  facet normal 0.935016 0.333219 0.121282
    outer loop
      vertex 19.5836 90.6255 21.0303
      vertex 20.2675 90.2991 16.6548
      vertex 19.5836 91.9936 17.2716
    endloop
  endfacet
  facet normal 0.935016 0.333219 0.121282
    outer loop
      vertex 20.2675 90.2991 16.6548
      vertex 19.5836 90.6255 21.0303
      vertex 20.2675 88.931 20.4136
    endloop
  endfacet
  facet normal 0.464723 0.832056 0.302844
    outer loop
      vertex 17.0445 93.3187 22.0106
      vertex 15.3368 95.529 18.5584
      vertex 15.3368 94.1609 22.3171
    endloop
  endfacet
  facet normal 0.464724 0.832056 0.302844
    outer loop
      vertex 15.3368 95.529 18.5584
      vertex 17.0445 93.3187 22.0106
      vertex 17.0445 94.6868 18.2518
    endloop
  endfacet
  facet normal 0 -0.34202 0.939693
    outer loop
      vertex 15.75 87.1319 19.7588
      vertex 20.5 87.1319 19.7588
      vertex 20.2675 88.931 20.4136
    endloop
  endfacet
  facet normal 1.70573e-07 -0.342021 0.939692
    outer loop
      vertex 15.2341 88.783 20.3597
      vertex 20.2675 88.931 20.4136
      vertex 19.5836 90.6255 21.0303
    endloop
  endfacet
  facet normal 0 -0.34202 0.939693
    outer loop
      vertex 20.5 87.1319 19.7588
      vertex 15.75 87.1319 19.7588
      vertex 20.2675 85.3329 19.104
    endloop
  endfacet
  facet normal -2.51215e-07 -0.34202 0.939693
    outer loop
      vertex 15.2341 88.783 20.3597
      vertex 19.5836 90.6255 21.0303
      vertex 18.4881 92.117 21.5732
    endloop
  endfacet
  facet normal -1.73017e-07 -0.342021 0.939692
    outer loop
      vertex 15.2341 85.4808 19.1578
      vertex 20.2675 85.3329 19.104
      vertex 15.75 87.1319 19.7588
    endloop
  endfacet
  facet normal 8.31652e-07 -0.342021 0.939692
    outer loop
      vertex 15.2341 88.783 20.3597
      vertex 18.4881 92.117 21.5732
      vertex 17.0445 93.3187 22.0106
    endloop
  endfacet
  facet normal -1.39848e-07 -0.34202 0.939693
    outer loop
      vertex 20.2675 85.3329 19.104
      vertex 15.2341 85.4808 19.1578
      vertex 19.5836 83.6383 18.4872
    endloop
  endfacet
  facet normal -6.30646e-08 -0.342019 0.939693
    outer loop
      vertex 19.5836 83.6383 18.4872
      vertex 15.2341 85.4808 19.1578
      vertex 18.4881 82.1469 17.9444
    endloop
  endfacet
  facet normal -5.54874e-07 -0.34202 0.939693
    outer loop
      vertex 13.8501 89.9099 20.7699
      vertex 17.0445 93.3187 22.0106
      vertex 15.3368 94.1609 22.3171
    endloop
  endfacet
  facet normal 1.73017e-07 -0.342021 0.939692
    outer loop
      vertex 20.2675 88.931 20.4136
      vertex 15.2341 88.783 20.3597
      vertex 15.75 87.1319 19.7588
    endloop
  endfacet
  facet normal 2.94778e-09 -0.34202 0.939693
    outer loop
      vertex 17.0445 93.3187 22.0106
      vertex 13.8501 89.9099 20.7699
      vertex 15.2341 88.783 20.3597
    endloop
  endfacet
  facet normal -3.75502e-07 -0.34202 0.939693
    outer loop
      vertex 13.4643 94.5947 22.475
      vertex 13.8501 89.9099 20.7699
      vertex 15.3368 94.1609 22.3171
    endloop
  endfacet
  facet normal 7.22245e-07 -0.34202 0.939693
    outer loop
      vertex 13.4643 94.5947 22.475
      vertex 12.0375 90.1548 20.859
      vertex 13.8501 89.9099 20.7699
    endloop
  endfacet
  facet normal 0 -0.34202 0.939693
    outer loop
      vertex 11.5357 94.5947 22.475
      vertex 12.0375 90.1548 20.859
      vertex 13.4643 94.5947 22.475
    endloop
  endfacet
  facet normal 2.93131e-07 -0.34202 0.939693
    outer loop
      vertex 9.66316 94.1609 22.3171
      vertex 12.0375 90.1548 20.859
      vertex 11.5357 94.5947 22.475
    endloop
  endfacet
  facet normal -1.29866e-06 -0.34202 0.939693
    outer loop
      vertex 12.0375 90.1548 20.859
      vertex 9.66316 94.1609 22.3171
      vertex 10.3717 89.44 20.5988
    endloop
  endfacet
  facet normal 7.25843e-07 -0.34202 0.939693
    outer loop
      vertex 7.95548 93.3187 22.0106
      vertex 10.3717 89.44 20.5988
      vertex 9.66316 94.1609 22.3171
    endloop
  endfacet
  facet normal -2.57027e-07 -0.34202 0.939693
    outer loop
      vertex 10.3717 89.44 20.5988
      vertex 6.51191 92.117 21.5732
      vertex 9.38165 87.9923 20.0719
    endloop
  endfacet
  facet normal -5.77639e-07 -0.342021 0.939692
    outer loop
      vertex 6.51191 92.117 21.5732
      vertex 10.3717 89.44 20.5988
      vertex 7.95548 93.3187 22.0106
    endloop
  endfacet
  facet normal -1.07857e-06 -0.34202 0.939693
    outer loop
      vertex 18.4881 82.1469 17.9444
      vertex 15.2341 85.4808 19.1578
      vertex 17.0445 80.9451 17.507
    endloop
  endfacet
  facet normal 7.31609e-07 -0.34202 0.939693
    outer loop
      vertex 13.8501 84.3539 18.7477
      vertex 17.0445 80.9451 17.507
      vertex 15.2341 85.4808 19.1578
    endloop
  endfacet
  facet normal -1.62938e-07 -0.34202 0.939693
    outer loop
      vertex 17.0445 80.9451 17.507
      vertex 13.8501 84.3539 18.7477
      vertex 15.3368 80.1029 17.2004
    endloop
  endfacet
  facet normal 4.65838e-07 -0.34202 0.939693
    outer loop
      vertex 13.8501 84.3539 18.7477
      vertex 13.4643 79.6692 17.0426
      vertex 15.3368 80.1029 17.2004
    endloop
  endfacet
  facet normal 7.85802e-07 -0.34202 0.939693
    outer loop
      vertex 12.0375 84.109 18.6585
      vertex 13.4643 79.6692 17.0426
      vertex 13.8501 84.3539 18.7477
    endloop
  endfacet
  facet normal 0 -0.34202 0.939693
    outer loop
      vertex 12.0375 84.109 18.6585
      vertex 11.5357 79.6692 17.0426
      vertex 13.4643 79.6692 17.0426
    endloop
  endfacet
  facet normal -1.1839e-06 -0.34202 0.939693
    outer loop
      vertex 9.66316 80.1029 17.2004
      vertex 12.0375 84.109 18.6585
      vertex 10.3717 84.8239 18.9187
    endloop
  endfacet
  facet normal -5.16901e-07 -0.34202 0.939693
    outer loop
      vertex 12.0375 84.109 18.6585
      vertex 9.66316 80.1029 17.2004
      vertex 11.5357 79.6692 17.0426
    endloop
  endfacet
  facet normal 5.71989e-07 -0.34202 0.939693
    outer loop
      vertex 6.51191 82.1469 17.9444
      vertex 10.3717 84.8239 18.9187
      vertex 9.38165 86.2715 19.4456
    endloop
  endfacet
  facet normal 6.33059e-07 -0.34202 0.939693
    outer loop
      vertex 5.41635 90.6255 21.0303
      vertex 9.38165 87.9923 20.0719
      vertex 6.51191 92.117 21.5732
    endloop
  endfacet
  facet normal 2.51388e-07 -0.34202 0.939693
    outer loop
      vertex 10.3717 84.8239 18.9187
      vertex 7.95548 80.9451 17.507
      vertex 9.66316 80.1029 17.2004
    endloop
  endfacet
  facet normal 8.86277e-08 -0.342021 0.939692
    outer loop
      vertex 4.73247 88.931 20.4136
      vertex 9.38165 87.9923 20.0719
      vertex 5.41635 90.6255 21.0303
    endloop
  endfacet
  facet normal 8.30955e-07 -0.342021 0.939692
    outer loop
      vertex 10.3717 84.8239 18.9187
      vertex 6.51191 82.1469 17.9444
      vertex 7.95548 80.9451 17.507
    endloop
  endfacet
  facet normal 1.76085e-07 -0.34202 0.939693
    outer loop
      vertex 4.5 87.1319 19.7588
      vertex 9.38165 87.9923 20.0719
      vertex 4.73247 88.931 20.4136
    endloop
  endfacet
  facet normal -3.29249e-07 -0.34202 0.939693
    outer loop
      vertex 9.38165 86.2715 19.4456
      vertex 5.41635 83.6383 18.4872
      vertex 6.51191 82.1469 17.9444
    endloop
  endfacet
  facet normal 0 -0.342019 0.939693
    outer loop
      vertex 9.38165 87.9923 20.0719
      vertex 4.5 87.1319 19.7588
      vertex 9.38165 86.2715 19.4456
    endloop
  endfacet
  facet normal -2.86088e-07 -0.34202 0.939693
    outer loop
      vertex 9.38165 86.2715 19.4456
      vertex 4.73247 85.3329 19.104
      vertex 5.41635 83.6383 18.4872
    endloop
  endfacet
  facet normal -1.76085e-07 -0.34202 0.939693
    outer loop
      vertex 9.38165 86.2715 19.4456
      vertex 4.5 87.1319 19.7588
      vertex 4.73247 85.3329 19.104
    endloop
  endfacet
  facet normal -0.822984 0.533806 0.194289
    outer loop
      vertex 5.41635 91.9936 17.2716
      vertex 6.51191 92.117 21.5732
      vertex 6.51191 93.4851 17.8144
    endloop
  endfacet
  facet normal -0.822984 0.533806 0.194289
    outer loop
      vertex 6.51191 92.117 21.5732
      vertex 5.41635 91.9936 17.2716
      vertex 5.41635 90.6255 21.0303
    endloop
  endfacet
  facet normal -0.239316 0.912387 0.332082
    outer loop
      vertex 11.5357 95.9627 18.7162
      vertex 9.66316 94.1609 22.3171
      vertex 11.5357 94.5947 22.475
    endloop
  endfacet
  facet normal -0.239316 0.912387 0.332082
    outer loop
      vertex 9.66316 94.1609 22.3171
      vertex 11.5357 95.9627 18.7162
      vertex 9.66316 95.529 18.5584
    endloop
  endfacet
  facet normal 0.992709 0.113268 0.041226
    outer loop
      vertex 20.2675 88.931 20.4136
      vertex 20.5 88.5 16
      vertex 20.2675 90.2991 16.6548
    endloop
  endfacet
  facet normal 0.992709 0.113268 0.041226
    outer loop
      vertex 20.5 88.5 16
      vertex 20.2675 88.931 20.4136
      vertex 20.5 87.1319 19.7588
    endloop
  endfacet
  facet normal 0.935016 -0.333219 -0.121282
    outer loop
      vertex 20.2675 85.3329 19.104
      vertex 19.5836 85.0064 14.7284
      vertex 20.2675 86.7009 15.3452
    endloop
  endfacet
  facet normal 0.935016 -0.333219 -0.121282
    outer loop
      vertex 19.5836 85.0064 14.7284
      vertex 20.2675 85.3329 19.104
      vertex 19.5836 83.6383 18.4872
    endloop
  endfacet
  facet normal -0.663122 -0.703373 -0.256002
    outer loop
      vertex 6.51191 82.1469 17.9444
      vertex 7.77159 81.3137 16.9706
      vertex 7.95548 80.9451 17.507
    endloop
  endfacet
  facet normal -0.663124 -0.703368 -0.256008
    outer loop
      vertex 6.51191 82.1469 17.9444
      vertex 7.5 81.7163 16.568
      vertex 7.77159 81.3137 16.9706
    endloop
  endfacet
  facet normal -0.663122 -0.703371 -0.256006
    outer loop
      vertex 6.51191 83.5149 14.1856
      vertex 7.5 81.7163 16.568
      vertex 6.51191 82.1469 17.9444
    endloop
  endfacet
  facet normal -0.66312 -0.703372 -0.256007
    outer loop
      vertex 7.5 81.7163 16.568
      vertex 6.51191 83.5149 14.1856
      vertex 7.5 82.6924 13.8862
    endloop
  endfacet
  facet normal -0.663116 -0.703377 -0.256006
    outer loop
      vertex 7.95548 80.9451 17.507
      vertex 7.77159 81.3137 16.9706
      vertex 7.95548 81.1866 16.8435
    endloop
  endfacet
  facet normal -0.935016 -0.33322 -0.121282
    outer loop
      vertex 5.41635 85.0064 14.7284
      vertex 4.73247 85.3329 19.104
      vertex 4.73247 86.7009 15.3452
    endloop
  endfacet
  facet normal -0.935016 -0.33322 -0.121282
    outer loop
      vertex 4.73247 85.3329 19.104
      vertex 5.41635 85.0064 14.7284
      vertex 5.41635 83.6383 18.4872
    endloop
  endfacet
  facet normal 0.663116 -0.703376 -0.256006
    outer loop
      vertex 17.0445 80.9451 17.507
      vertex 17.0445 81.1866 16.8435
      vertex 17.2284 81.3137 16.9706
    endloop
  endfacet
  facet normal 0.663121 -0.703373 -0.256002
    outer loop
      vertex 17.2284 81.3137 16.9706
      vertex 18.4881 82.1469 17.9444
      vertex 17.0445 80.9451 17.507
    endloop
  endfacet
  facet normal 0.663123 -0.703368 -0.256008
    outer loop
      vertex 17.5 81.7163 16.568
      vertex 18.4881 82.1469 17.9444
      vertex 17.2284 81.3137 16.9706
    endloop
  endfacet
  facet normal 0.663121 -0.703371 -0.256006
    outer loop
      vertex 17.5 81.7163 16.568
      vertex 18.4881 83.5149 14.1856
      vertex 18.4881 82.1469 17.9444
    endloop
  endfacet
  facet normal 0.66312 -0.703372 -0.256007
    outer loop
      vertex 18.4881 83.5149 14.1856
      vertex 17.5 81.7163 16.568
      vertex 17.5 82.6924 13.8862
    endloop
  endfacet
  facet normal 0.822984 -0.533806 -0.194289
    outer loop
      vertex 19.5836 83.6383 18.4872
      vertex 18.4881 83.5149 14.1856
      vertex 19.5836 85.0064 14.7284
    endloop
  endfacet
  facet normal 0.822984 -0.533806 -0.194289
    outer loop
      vertex 18.4881 83.5149 14.1856
      vertex 19.5836 83.6383 18.4872
      vertex 18.4881 82.1469 17.9444
    endloop
  endfacet
  facet normal -2.1319e-06 0.34202 -0.939693
    outer loop
      vertex 7.5 82.6924 13.8862
      vertex 6.51191 83.5149 14.1856
      vertex 7.5 83.9429 14.3414
    endloop
  endfacet
  facet normal 0 0.34202 -0.939693
    outer loop
      vertex 15.75 88.5 16
      vertex 20.5 88.5 16
      vertex 20.2675 86.7009 15.3452
    endloop
  endfacet
  facet normal 1.39848e-07 0.34202 -0.939693
    outer loop
      vertex 15.2341 86.8489 15.399
      vertex 20.2675 86.7009 15.3452
      vertex 19.5836 85.0064 14.7284
    endloop
  endfacet
  facet normal 0 0.34202 -0.939693
    outer loop
      vertex 20.5 88.5 16
      vertex 15.75 88.5 16
      vertex 20.2675 90.2991 16.6548
    endloop
  endfacet
  facet normal 1.52288e-06 0.342019 -0.939693
    outer loop
      vertex 17.5 83.9429 14.3414
      vertex 19.5836 85.0064 14.7284
      vertex 18.4881 83.5149 14.1856
    endloop
  endfacet
  facet normal -1.73017e-07 0.342021 -0.939692
    outer loop
      vertex 15.2341 90.1511 16.601
      vertex 20.2675 90.2991 16.6548
      vertex 15.75 88.5 16
    endloop
  endfacet
  facet normal 2.1319e-06 0.34202 -0.939693
    outer loop
      vertex 17.5 83.9429 14.3414
      vertex 18.4881 83.5149 14.1856
      vertex 17.5 82.6924 13.8862
    endloop
  endfacet
  facet normal 6.15999e-07 0.342021 -0.939692
    outer loop
      vertex 15.2341 86.8489 15.399
      vertex 19.5836 85.0064 14.7284
      vertex 17.5 83.9429 14.3414
    endloop
  endfacet
  facet normal -1.39848e-07 0.34202 -0.939693
    outer loop
      vertex 20.2675 90.2991 16.6548
      vertex 15.2341 90.1511 16.601
      vertex 19.5836 91.9936 17.2716
    endloop
  endfacet
  facet normal -4.51302e-07 0.34202 -0.939693
    outer loop
      vertex 19.5836 91.9936 17.2716
      vertex 15.2341 90.1511 16.601
      vertex 18.4881 93.4851 17.8144
    endloop
  endfacet
  facet normal 1.73017e-07 0.342021 -0.939692
    outer loop
      vertex 20.2675 86.7009 15.3452
      vertex 15.2341 86.8489 15.399
      vertex 15.75 88.5 16
    endloop
  endfacet
  facet normal -3.28534e-07 0.34202 -0.939693
    outer loop
      vertex 17.5 83.9429 14.3414
      vertex 13.8501 85.722 14.9889
      vertex 15.2341 86.8489 15.399
    endloop
  endfacet
  facet normal -6.50115e-07 0.342019 -0.939693
    outer loop
      vertex 17.5 83.9429 14.3414
      vertex 12.0375 85.4771 14.8997
      vertex 13.8501 85.722 14.9889
    endloop
  endfacet
  facet normal 0 0.342019 -0.939693
    outer loop
      vertex 4.5 88.5 16
      vertex 9.38165 89.3604 16.3132
      vertex 9.38165 87.6396 15.6868
    endloop
  endfacet
  facet normal 0 0.342021 -0.939692
    outer loop
      vertex 7.5 83.9429 14.3414
      vertex 12.0375 85.4771 14.8997
      vertex 17.5 83.9429 14.3414
    endloop
  endfacet
  facet normal 5.70526e-07 0.34202 -0.939693
    outer loop
      vertex 7.5 83.9429 14.3414
      vertex 10.3717 86.1919 15.1599
      vertex 12.0375 85.4771 14.8997
    endloop
  endfacet
  facet normal -2.11331e-08 0.342021 -0.939692
    outer loop
      vertex 7.5 83.9429 14.3414
      vertex 9.38165 87.6396 15.6868
      vertex 10.3717 86.1919 15.1599
    endloop
  endfacet
  facet normal -4.98748e-07 0.342021 -0.939692
    outer loop
      vertex 5.41635 85.0064 14.7284
      vertex 9.38165 87.6396 15.6868
      vertex 7.5 83.9429 14.3414
    endloop
  endfacet
  facet normal -1.52288e-06 0.342019 -0.939693
    outer loop
      vertex 5.41635 85.0064 14.7284
      vertex 7.5 83.9429 14.3414
      vertex 6.51191 83.5149 14.1856
    endloop
  endfacet
  facet normal -8.24741e-08 0.34202 -0.939693
    outer loop
      vertex 9.38165 89.3604 16.3132
      vertex 6.51191 93.4851 17.8144
      vertex 7.95548 94.6868 18.2518
    endloop
  endfacet
  facet normal 2.86088e-07 0.34202 -0.939693
    outer loop
      vertex 9.38165 87.6396 15.6868
      vertex 5.41635 85.0064 14.7284
      vertex 4.73247 86.7009 15.3452
    endloop
  endfacet
  facet normal 2.07119e-07 0.34202 -0.939693
    outer loop
      vertex 9.38165 89.3604 16.3132
      vertex 5.41635 91.9936 17.2716
      vertex 6.51191 93.4851 17.8144
    endloop
  endfacet
  facet normal 1.76085e-07 0.34202 -0.939693
    outer loop
      vertex 9.38165 87.6396 15.6868
      vertex 4.73247 86.7009 15.3452
      vertex 4.5 88.5 16
    endloop
  endfacet
  facet normal -2.86088e-07 0.34202 -0.939693
    outer loop
      vertex 9.38165 89.3604 16.3132
      vertex 4.73247 90.2991 16.6548
      vertex 5.41635 91.9936 17.2716
    endloop
  endfacet
  facet normal -1.76085e-07 0.34202 -0.939693
    outer loop
      vertex 9.38165 89.3604 16.3132
      vertex 4.5 88.5 16
      vertex 4.73247 90.2991 16.6548
    endloop
  endfacet
  facet normal -1.4665e-07 0.34202 -0.939693
    outer loop
      vertex 18.4881 93.4851 17.8144
      vertex 15.2341 90.1511 16.601
      vertex 17.0445 94.6868 18.2518
    endloop
  endfacet
  facet normal -2.45782e-07 0.34202 -0.939693
    outer loop
      vertex 13.8501 91.278 17.0111
      vertex 17.0445 94.6868 18.2518
      vertex 15.2341 90.1511 16.601
    endloop
  endfacet
  facet normal -3.40288e-07 0.34202 -0.939693
    outer loop
      vertex 17.0445 94.6868 18.2518
      vertex 13.8501 91.278 17.0111
      vertex 15.3368 95.529 18.5584
    endloop
  endfacet
  facet normal 3.75502e-07 0.34202 -0.939693
    outer loop
      vertex 13.8501 91.278 17.0111
      vertex 13.4643 95.9627 18.7162
      vertex 15.3368 95.529 18.5584
    endloop
  endfacet
  facet normal 1.73346e-06 0.34202 -0.939693
    outer loop
      vertex 12.0375 91.5229 17.1003
      vertex 13.4643 95.9627 18.7162
      vertex 13.8501 91.278 17.0111
    endloop
  endfacet
  facet normal 0 0.34202 -0.939693
    outer loop
      vertex 12.0375 91.5229 17.1003
      vertex 11.5357 95.9627 18.7162
      vertex 13.4643 95.9627 18.7162
    endloop
  endfacet
  facet normal -1.1839e-06 0.34202 -0.939693
    outer loop
      vertex 9.66316 95.529 18.5584
      vertex 12.0375 91.5229 17.1003
      vertex 10.3717 90.8081 16.8401
    endloop
  endfacet
  facet normal -5.16901e-07 0.34202 -0.939693
    outer loop
      vertex 12.0375 91.5229 17.1003
      vertex 9.66316 95.529 18.5584
      vertex 11.5357 95.9627 18.7162
    endloop
  endfacet
  facet normal 4.09715e-07 0.34202 -0.939693
    outer loop
      vertex 7.95548 94.6868 18.2518
      vertex 10.3717 90.8081 16.8401
      vertex 9.38165 89.3604 16.3132
    endloop
  endfacet
  facet normal 2.51388e-07 0.34202 -0.939693
    outer loop
      vertex 10.3717 90.8081 16.8401
      vertex 7.95548 94.6868 18.2518
      vertex 9.66316 95.529 18.5584
    endloop
  endfacet
  facet normal -0.822984 -0.533806 -0.194289
    outer loop
      vertex 6.51191 83.5149 14.1856
      vertex 5.41635 83.6383 18.4872
      vertex 5.41635 85.0064 14.7284
    endloop
  endfacet
  facet normal -0.822984 -0.533806 -0.194289
    outer loop
      vertex 5.41635 83.6383 18.4872
      vertex 6.51191 83.5149 14.1856
      vertex 6.51191 82.1469 17.9444
    endloop
  endfacet
  facet normal 0.464724 -0.832057 -0.302842
    outer loop
      vertex 15.3368 80.1029 17.2004
      vertex 17.0445 81.1866 16.8435
      vertex 17.0445 80.9451 17.507
    endloop
  endfacet
  facet normal 0.464723 -0.832056 -0.302845
    outer loop
      vertex 17.0445 81.1866 16.8435
      vertex 15.3368 80.1029 17.2004
      vertex 15.3368 80.4873 16.1442
    endloop
  endfacet
  facet normal -0.464724 -0.832057 -0.302842
    outer loop
      vertex 7.95548 81.1866 16.8435
      vertex 9.66316 80.1029 17.2004
      vertex 7.95548 80.9451 17.507
    endloop
  endfacet
  facet normal -0.464723 -0.832056 -0.302845
    outer loop
      vertex 9.66316 80.1029 17.2004
      vertex 7.95548 81.1866 16.8435
      vertex 9.66316 80.4873 16.1442
    endloop
  endfacet
  facet normal 0 -0.939693 -0.34202
    outer loop
      vertex 11.5357 80.1272 15.7841
      vertex 13.4643 79.6692 17.0426
      vertex 11.5357 79.6692 17.0426
    endloop
  endfacet
  facet normal 0 -0.939693 -0.34202
    outer loop
      vertex 13.4643 79.6692 17.0426
      vertex 11.5357 80.1272 15.7841
      vertex 13.4643 80.1272 15.7841
    endloop
  endfacet
  facet normal -0.239316 -0.912386 -0.332083
    outer loop
      vertex 9.66316 80.4873 16.1442
      vertex 11.5357 79.6692 17.0426
      vertex 9.66316 80.1029 17.2004
    endloop
  endfacet
  facet normal -0.239317 -0.912386 -0.332082
    outer loop
      vertex 11.5357 79.6692 17.0426
      vertex 9.66316 80.4873 16.1442
      vertex 11.5357 80.1272 15.7841
    endloop
  endfacet
  facet normal -0.959493 -0.264742 -0.0963584
    outer loop
      vertex 15.75 88.5 16
      vertex 15.2341 88.783 20.3597
      vertex 15.2341 90.1511 16.601
    endloop
  endfacet
  facet normal -0.959493 -0.264742 -0.0963584
    outer loop
      vertex 15.2341 88.783 20.3597
      vertex 15.75 88.5 16
      vertex 15.75 87.1319 19.7588
    endloop
  endfacet
  facet normal 1 0 0
    outer loop
      vertex 9.38165 87.9923 20.0719
      vertex 9.38165 87.6396 15.6868
      vertex 9.38165 89.3604 16.3132
    endloop
  endfacet
  facet normal 1 0 -0
    outer loop
      vertex 9.38165 87.6396 15.6868
      vertex 9.38165 87.9923 20.0719
      vertex 9.38165 86.2715 19.4456
    endloop
  endfacet
  facet normal -0.142314 -0.930128 -0.33854
    outer loop
      vertex 12.0375 91.5229 17.1003
      vertex 13.8501 89.9099 20.7699
      vertex 12.0375 90.1548 20.859
    endloop
  endfacet
  facet normal -0.142317 -0.930128 -0.338539
    outer loop
      vertex 13.8501 89.9099 20.7699
      vertex 12.0375 91.5229 17.1003
      vertex 13.8501 91.278 17.0111
    endloop
  endfacet
  facet normal -0.654861 -0.710172 -0.258481
    outer loop
      vertex 13.8501 91.278 17.0111
      vertex 15.2341 88.783 20.3597
      vertex 13.8501 89.9099 20.7699
    endloop
  endfacet
  facet normal -0.654861 -0.710172 -0.258481
    outer loop
      vertex 15.2341 88.783 20.3597
      vertex 13.8501 91.278 17.0111
      vertex 15.2341 90.1511 16.601
    endloop
  endfacet
  facet normal -0.654861 0.710172 0.258482
    outer loop
      vertex 15.2341 86.8489 15.399
      vertex 13.8501 84.3539 18.7477
      vertex 15.2341 85.4808 19.1578
    endloop
  endfacet
  facet normal -0.654861 0.710172 0.258481
    outer loop
      vertex 13.8501 84.3539 18.7477
      vertex 15.2341 86.8489 15.399
      vertex 13.8501 85.722 14.9889
    endloop
  endfacet
  facet normal 0.841253 0.508037 0.18491
    outer loop
      vertex 9.38165 86.2715 19.4456
      vertex 10.3717 86.1919 15.1599
      vertex 9.38165 87.6396 15.6868
    endloop
  endfacet
  facet normal 0.841253 0.508037 0.18491
    outer loop
      vertex 10.3717 86.1919 15.1599
      vertex 9.38165 86.2715 19.4456
      vertex 10.3717 84.8239 18.9187
    endloop
  endfacet
  facet normal 0.841253 -0.508037 -0.18491
    outer loop
      vertex 10.3717 89.44 20.5988
      vertex 9.38165 89.3604 16.3132
      vertex 10.3717 90.8081 16.8401
    endloop
  endfacet
  facet normal 0.841253 -0.508037 -0.18491
    outer loop
      vertex 9.38165 89.3604 16.3132
      vertex 10.3717 89.44 20.5988
      vertex 9.38165 87.9923 20.0719
    endloop
  endfacet
  facet normal 0.415413 -0.854775 -0.311114
    outer loop
      vertex 10.3717 89.44 20.5988
      vertex 12.0375 91.5229 17.1003
      vertex 12.0375 90.1548 20.859
    endloop
  endfacet
  facet normal 0.415416 -0.854774 -0.311112
    outer loop
      vertex 12.0375 91.5229 17.1003
      vertex 10.3717 89.44 20.5988
      vertex 10.3717 90.8081 16.8401
    endloop
  endfacet
  facet normal 0.415416 0.854774 0.311112
    outer loop
      vertex 12.0375 84.109 18.6585
      vertex 10.3717 86.1919 15.1599
      vertex 10.3717 84.8239 18.9187
    endloop
  endfacet
  facet normal 0.415416 0.854774 0.311112
    outer loop
      vertex 10.3717 86.1919 15.1599
      vertex 12.0375 84.109 18.6585
      vertex 12.0375 85.4771 14.8997
    endloop
  endfacet
  facet normal -0.959493 0.264742 0.0963584
    outer loop
      vertex 15.2341 86.8489 15.399
      vertex 15.75 87.1319 19.7588
      vertex 15.75 88.5 16
    endloop
  endfacet
  facet normal -0.959493 0.264742 0.0963584
    outer loop
      vertex 15.75 87.1319 19.7588
      vertex 15.2341 86.8489 15.399
      vertex 15.2341 85.4808 19.1578
    endloop
  endfacet
  facet normal -0.142317 0.930128 0.338539
    outer loop
      vertex 13.8501 85.722 14.9889
      vertex 12.0375 84.109 18.6585
      vertex 13.8501 84.3539 18.7477
    endloop
  endfacet
  facet normal -0.142317 0.930128 0.338539
    outer loop
      vertex 12.0375 84.109 18.6585
      vertex 13.8501 85.722 14.9889
      vertex 12.0375 85.4771 14.8997
    endloop
  endfacet
  facet normal -1 -0 0
    outer loop
      vertex 7.5 84.1421 14.1421
      vertex 7.5 82.6924 13.8862
      vertex 7.5 83.9429 14.3414
    endloop
  endfacet
  facet normal -1 0 0
    outer loop
      vertex 7.5 82.6924 13.8862
      vertex 7.5 81.3137 16.9706
      vertex 7.5 81.7163 16.568
    endloop
  endfacet
  facet normal -1 0 0
    outer loop
      vertex 7.5 70 0
      vertex 7.5 82.6924 13.8862
      vertex 7.5 84.1421 14.1421
    endloop
  endfacet
  facet normal -1 0 0
    outer loop
      vertex 7.5 70 4
      vertex 7.5 82.6924 13.8862
      vertex 7.5 70 0
    endloop
  endfacet
  facet normal -1 -0 0
    outer loop
      vertex 7.5 82.6924 13.8862
      vertex 7.5 70 4
      vertex 7.5 81.3137 16.9706
    endloop
  endfacet
  facet normal -1 0 0
    outer loop
      vertex 7.5 81.3137 16.9706
      vertex 7.5 70 4
      vertex 7.5 68.3431 4
    endloop
  endfacet
  facet normal 0 -0.707117 0.707096
    outer loop
      vertex 7.5 81.3137 16.9706
      vertex 7.95548 81.1866 16.8435
      vertex 7.77159 81.3137 16.9706
    endloop
  endfacet
  facet normal 5.86403e-06 -0.707107 0.707107
    outer loop
      vertex 7.5 68.3431 4
      vertex 7.95548 81.1866 16.8435
      vertex 7.5 81.3137 16.9706
    endloop
  endfacet
  facet normal 0 -0.707107 0.707107
    outer loop
      vertex 11.5357 80.1272 15.7841
      vertex 7.5 68.3431 4
      vertex 13.4643 80.1272 15.7841
    endloop
  endfacet
  facet normal -1.02394e-06 -0.707107 0.707107
    outer loop
      vertex 9.66316 80.4873 16.1442
      vertex 7.5 68.3431 4
      vertex 11.5357 80.1272 15.7841
    endloop
  endfacet
  facet normal 7.7848e-07 -0.707107 0.707107
    outer loop
      vertex 7.95548 81.1866 16.8435
      vertex 7.5 68.3431 4
      vertex 9.66316 80.4873 16.1442
    endloop
  endfacet
  facet normal 0 -0.707117 0.707096
    outer loop
      vertex 17.0445 81.1866 16.8435
      vertex 17.5 81.3137 16.9706
      vertex 17.2284 81.3137 16.9706
    endloop
  endfacet
  facet normal -7.7848e-07 -0.707107 0.707107
    outer loop
      vertex 17.5 68.3431 4
      vertex 17.0445 81.1866 16.8435
      vertex 15.3368 80.4873 16.1442
    endloop
  endfacet
  facet normal 0 -0.707107 0.707107
    outer loop
      vertex 17.5 68.3431 4
      vertex 13.4643 80.1272 15.7841
      vertex 7.5 68.3431 4
    endloop
  endfacet
  facet normal 1.02394e-06 -0.707107 0.707107
    outer loop
      vertex 13.4643 80.1272 15.7841
      vertex 17.5 68.3431 4
      vertex 15.3368 80.4873 16.1442
    endloop
  endfacet
  facet normal -5.86403e-06 -0.707107 0.707107
    outer loop
      vertex 17.0445 81.1866 16.8435
      vertex 17.5 68.3431 4
      vertex 17.5 81.3137 16.9706
    endloop
  endfacet
  facet normal 1 0 0
    outer loop
      vertex 17.5 81.3137 16.9706
      vertex 17.5 68.3431 4
      vertex 17.5 70 4
    endloop
  endfacet
  facet normal 1 0 0
    outer loop
      vertex 17.5 82.6924 13.8862
      vertex 17.5 84.1421 14.1421
      vertex 17.5 83.9429 14.3414
    endloop
  endfacet
  facet normal 1 0 0
    outer loop
      vertex 17.5 81.3137 16.9706
      vertex 17.5 82.6924 13.8862
      vertex 17.5 81.7163 16.568
    endloop
  endfacet
  facet normal 1 0 0
    outer loop
      vertex 17.5 70 4
      vertex 17.5 82.6924 13.8862
      vertex 17.5 81.3137 16.9706
    endloop
  endfacet
  facet normal 1 0 0
    outer loop
      vertex 17.5 70 0
      vertex 17.5 82.6924 13.8862
      vertex 17.5 70 4
    endloop
  endfacet
  facet normal 1 -0 0
    outer loop
      vertex 17.5 82.6924 13.8862
      vertex 17.5 70 0
      vertex 17.5 84.1421 14.1421
    endloop
  endfacet
  facet normal 0 0.707103 0.70711
    outer loop
      vertex 17.5 81.7163 16.568
      vertex 17.2284 81.3137 16.9706
      vertex 17.5 81.3137 16.9706
    endloop
  endfacet
  facet normal 0 0.70711 0.707103
    outer loop
      vertex 17.5 84.1421 14.1421
      vertex 7.5 83.9429 14.3414
      vertex 17.5 83.9429 14.3414
    endloop
  endfacet
  facet normal 0 0.70711 0.707103
    outer loop
      vertex 7.5 83.9429 14.3414
      vertex 17.5 84.1421 14.1421
      vertex 7.5 84.1421 14.1421
    endloop
  endfacet
  facet normal 0 0.707103 0.70711
    outer loop
      vertex 7.5 81.7163 16.568
      vertex 7.5 81.3137 16.9706
      vertex 7.77159 81.3137 16.9706
    endloop
  endfacet
  facet normal 0 0.707107 -0.707107
    outer loop
      vertex 17.5 70 0
      vertex 7.5 84.1421 14.1421
      vertex 17.5 84.1421 14.1421
    endloop
  endfacet
  facet normal 0 0.707107 -0.707107
    outer loop
      vertex 7.5 84.1421 14.1421
      vertex 17.5 70 0
      vertex 7.5 70 0
    endloop
  endfacet
endsolid OpenSCAD_Model
